<svg xmlns="http://www.w3.org/2000/svg" viewBox="0 0 3705.67 997.08"><title>Fichier 1</title><g id="Calque_2" data-name="Calque 2"><g id="Calque_1-2" data-name="Calque 1"><path d="M1045.63,556.77c-4.2-1.81-7.51-3.32-10.88-4.67q-50.07-20.05-100.18-40c-7.72-3.06-14.37-7.19-17.72-15.11-4.81-11.36-2.35-21.51,5.76-30.48q17.1-18.92,34.29-37.75,36.32-39.95,72.64-79.9c2-2.19,3.79-4.56,6.21-7.49-6.56-7.3-12.91-14.46-19.34-21.53q-46.08-50.67-92.22-101.29c-5.56-6.09-10-12.71-9.73-21.24.42-12.65,6.95-20.94,18.79-25.61,29.43-11.6,58.73-23.53,88.1-35.29L1349.75,5c2.17-.86,4.32-1.75,6.5-2.6,12.17-4.77,22.84-2.39,32,6.81l26.87,26.86q41,41,82,82.07c2.57,2.59,4.47,5.84,7.08,9.32,4.17-4,6.81-6.48,9.35-9q51.29-51.24,102.54-102.51c1.41-1.42,2.89-2.77,4.23-4.26C1631-.21,1643.22-2.77,1658.17,3.57c23.91,10.14,48.21,19.38,72.32,29,114.42,45.79,228.62,92.12,343.39,137,26.06,10.19,27.5,34.58,11.67,51-35.34,36.72-68.9,75.17-103.18,112.93-2.21,2.43-4.33,4.95-7.11,8.13,4.41,4.91,8.57,9.58,12.78,14.22q49.08,54,98.12,108.08c2.89,3.19,5.87,6.54,7.78,10.33,7,13.85.8,30.08-14.17,36.34-21.2,8.86-42.64,17.15-64,25.7-16.37,6.57-32.73,13.17-50.17,20.19V822.23c0,2.66,0,5.33,0,8-.4,16.92-6.31,25-22.31,30.08Q1733.9,927,1524.56,993.86c-13,4.18-24.66,4.36-37.76.15q-206.85-66.42-414-132c-2.86-.91-5.76-1.68-8.57-2.71-11.1-4-17.5-11.8-18.37-23.73-.27-3.65-.23-7.33-.23-11q0-127.5,0-255Zm97.68-215.57c4.45,2.14,7,3.54,9.7,4.64q172.8,70.77,345.58,141.57a17.2,17.2,0,0,0,14.2,0q172.26-70.77,344.61-141.29c3-1.21,5.83-2.68,10.45-4.81-5.31-2.25-8.86-3.8-12.44-5.26q-170-69.6-340-139.32c-7.1-2.92-12.89-2.71-19.86.17q-126.94,52.31-254.09,104.12Zm768.43,473.63V578.37c-4.5,1.65-8.21,2.91-11.85,4.37q-67.73,27.07-135.44,54.21-53.33,21.36-106.66,42.74c-7.94,3.2-16,5.47-24.11,1.52a49.82,49.82,0,0,1-12.74-9.36c-27-26.73-53.81-53.67-80.71-80.51-2-2-4.24-3.74-7.39-6.49V935.36ZM1478.13,935.36V584.63c-3.42,3.15-5.86,5.23-8.12,7.49q-40.34,40.27-80.55,80.63c-5.62,5.68-11.91,10.39-19.84,10.26-6.1-.09-12.44-2-18.2-4.29q-120.2-47.85-240.25-96.06c-3.81-1.52-7.69-2.84-11.88-4.39V814.81ZM1079.46,373.21l-93,102.32,372.71,149.1,97.09-97.28ZM1652.39,58.58l-97.24,97.23,376.07,153.83c22.41-21.48,88.61-95.81,91.55-102.9Zm-573,251.33,376.84-154.16-97.17-97.33L986.4,207.55Zm852.93,64c-17.65,4.87-372.31,150.89-377,154.85l96.07,96.17,373.38-149.37Z"/><path d="M2756.81,265.05c-1.36,2.16-2.89,4.23-4.07,6.48-23.56,44.81-47.29,89.53-70.56,134.49-20.51,39.63-40.51,79.54-60.69,119.34-3,5.94-5.62,12.09-8.67,18-5.29,10.26-12.48,18.94-22.58,24.79q-16.81,9.75-27.58-6.36a86,86,0,0,1-6.38-12.41Q2505.22,436,2454.2,322.51c-3.79-8.4-8.22-16.51-12.35-24.76l-2.25.34c-1,7.38-2.14,14.74-2.95,22.14q-16.52,150.61-20.62,302.1c-2.49,97.28-4,194.59-5.75,291.89-.17,9.64-2.58,17.74-10.2,23.8-6,4.81-12.76,7.14-20.5,4.32-2.5-.91-5.11-1.54-7.57-2.53-16.57-6.68-18.08-8.78-17.65-26.4Q2359,720,2363.79,526.58c1.43-58,2.76-116,4.59-173.91,1.76-55.64,4.86-111.23,12.53-166.39,3.1-22.36,8.34-44.46,13.53-66.46,1.8-7.6,5.7-15,9.89-21.66,5.27-8.43,10.31-9,19.29-4.25,2.65,1.41,5.34,2.75,8.07,4,15.75,7.08,24.69,19.13,28.67,36,8.94,37.91,18.14,75.77,28.18,113.4,14.69,55.11,32.59,109.13,58.13,160.33a389.15,389.15,0,0,0,31.14,52.69c3.32-4.44,6.57-8.08,9-12.2,17.6-29.45,35.25-58.88,52.5-88.53,31.67-54.44,62.16-109.53,87.85-167.1,9.36-21,18.46-42.13,26.15-63.75,10.34-29.08,34.11-30.21,53-23,.93.35,1.86.72,2.77,1.14,17.85,8.27,18.93,10.56,18.33,30.18-1.11,36.31-2.32,72.63-2.63,109-1.23,144.31-1.92,288.63-3.24,432.94-.76,82.32-2.33,164.63-3.58,247a38,38,0,0,1-25.06,35c-12.91,4.69-30.24-1.12-36.82-12.79-1.35-2.37-1.35-5.73-1.3-8.62.34-21.33,1.22-42.66,1.25-64q.26-168.49.2-337,.09-94,.54-188c.16-25,1.21-50,1.84-75,.08-3.29,0-6.58,0-9.88Z"/><path d="M3056.33,297.88c-1.94,17.17-4.32,34.3-5.72,51.51-4.73,58.11-9.48,116.23-13.47,174.4-2.26,32.9-3.65,65.9-4.4,98.88q-3.34,146-5.75,291.92c-.16,8.83-1.91,16.53-8.7,22.44-6.4,5.56-13.6,8.32-22.12,5.21-2.81-1-5.72-1.82-8.47-3-15.77-6.74-16.94-9-16.5-26.19q2.73-106,5.22-211.92c2.77-113,4.93-225.94,8.61-338.87,1.65-50.59,5.84-101.12,9.88-151.6,2.21-27.53,6.33-54.95,13.64-81.7a173.53,173.53,0,0,1,8.35-23.49,39.52,39.52,0,0,1,8-11.32c3.78-3.89,8.41-4.89,13.58-1.65,4.22,2.63,8.82,4.66,13.27,6.94,13.26,6.78,21.32,17.33,24.9,31.94,10.38,42.36,20.58,84.78,32,126.87,14,51.83,31.34,102.59,55.81,150.57,7.41,14.52,16,28.41,24.24,42.52,1.64,2.82,3.78,5.34,6.41,9,3.57-5,6.9-9,9.54-13.45,17.75-29.76,35.54-59.49,52.95-89.45,31.46-54.17,61.77-109,87.2-166.31,9-20.38,17.37-41.11,25.51-61.87,10-25.41,30.34-34,55.31-22.71,1.21.55,2.4,1.16,3.57,1.79,15.61,8.41,15.75,8.41,15.26,26.18-5.68,203.28-4.49,406.62-6.41,609.94-.58,61.66-2.2,123.31-3.39,185-.25,12.87-11.62,27-25.27,31.62-12.23,4.17-26-.06-34.72-11.3-1.8-2.33-2.46-6.07-2.48-9.16q-.13-21.5.41-43c2.86-119.65,1.18-239.31.61-359-.38-79.32,1-158.65,1.6-238,.09-12,0-23.92,0-36.17a28.42,28.42,0,0,0-3.58,4.51c-23.79,45.07-47.73,90.06-71.18,135.3-20.54,39.63-40.53,79.53-60.71,119.35-3.16,6.23-5.86,12.71-9,18.93-5.39,10.59-12.68,19.62-23.11,25.62-11.19,6.44-20.47,4.32-27.55-6.47-2.91-4.42-5-9.4-7.19-14.25Q3121.33,434,3070.29,320.6c-3.52-7.82-7.59-15.39-11.41-23.08Z"/><path d="M616.29,734.27,462.73,757c-2.07,14.86-4.7,29.24-6,43.74-4.51,50.75-8.54,101.55-12.82,152.32-.36,4.3-.27,9.06-2.16,12.68-2,3.87-5.55,7.89-9.43,9.65-11,5-22.13,3.69-32.33-2.93-5.17-3.36-7.26-8.38-6.88-14.59q4.26-69.84,8.41-139.67,2.36-39.4,4.69-78.82,4.8-80.8,9.57-161.62c2.27-38.58,4.4-77.17,6.68-115.75q4.56-77.31,9.25-154.63c2.26-38.25,4.39-76.5,6.68-114.75,1.87-31.25,3.78-62.51,5.91-93.75a105.32,105.32,0,0,1,8.94-36.71c11.62-25.51,33-30,53.73-11.12,15.53,14.16,24.58,32.33,29.62,52.32,9,35.5,18,71,25.57,106.82q49.65,234,98.44,468.1c17.17,82.11,33.86,164.32,51,246.44,2.16,10.35.31,19.16-6.91,26.75-9.36,9.83-22.46,11.22-33.51,3.32A35.2,35.2,0,0,1,656.35,932c-12.55-64-25.42-128-38.21-192C617.82,738.48,617.15,737,616.29,734.27Zm-11.66-52.6a52.34,52.34,0,0,0-.47-6.19q-54.43-246.63-109-493.24c-.05-.26-.44-.52-.73-.63a5.09,5.09,0,0,0-1.36,0c-.2,2.86-.41,5.79-.6,8.72l-8.7,140.62L472.17,519.42c-1.68,27.26-3.53,54.51-5,81.78-1.64,30.27-2.95,60.56-4.32,90.84-.14,3.11.3,6.24.51,10Z"/><path d="M92,855.77c14.45-3.47,28.29-6.81,42.13-10.12,26-6.21,52.16-11.08,78.81-12.73a153.43,153.43,0,0,1,30.82,1.1c13.44,1.91,20.93,9.47,22.75,20.48,2.73,16.52-1.65,29.55-14,35.44a122.2,122.2,0,0,1-30.23,9.81c-19,3.51-38.18,5.79-57.34,8.17-25.51,3.15-50.86,6.68-74.5,17.73a70.25,70.25,0,0,1-14.23,4.55c-21.81,4.95-44-9.88-46.72-32.09C27.2,879,25.5,859.63,24.84,840.34,22.5,772.4,19.79,704.45,19,636.48,17.9,548.8,14,461.27,9,373.75,6.51,329.84,4.87,285.87,2.17,242-1.54,181.68.77,121.35.17,61,0,42.32,18.32,31.36,34.49,41c15.43,9.16,25,23.44,25.92,41.53,1.79,33.61,2.66,67.27,3.5,100.92,2.37,94.29,4,188.61,6.94,282.88C73.43,548.56,77,630.81,81,713c2.22,45.25,6.33,90.4,9.63,135.6A66.91,66.91,0,0,0,92,855.77Z"/><path d="M3588.88,174.72c0-18.67-.24-32,.07-45.33.3-12.89,5.93-18.72,18.79-20.07a44.76,44.76,0,0,1,29.49,7.29c7.78,5,12.18,12,12.82,21.42q3,43.38,6.19,86.74,4.74,65.8,9.52,131.6c2.95,41.21,5.79,82.43,8.76,123.64,3,41.87,6.18,83.73,9.22,125.6,2.93,40.55,5.54,81.12,8.72,121.64,3.57,45.49,7.63,91,11.44,136.42.7,8.3,1.39,16.61,1.74,24.93.48,11.64-4.72,20.53-15.62,24.15a87.1,87.1,0,0,1-26.34,4.2c-10.9.09-19.12-6.11-23-16.33a100.06,100.06,0,0,1-6.28-24c-1.83-16.54-2.64-33.21-3.58-49.84q-5.49-97.32-10.81-194.64c-4.64-82.51-9-165-14.25-247.51-2.64-41.21-7.26-82.29-10.63-123.47C3592.63,230.59,3590.69,200,3588.88,174.72Z"/></g></g></svg>