<?xml version="1.0" encoding="utf-8"?>
<!-- Generator: Adobe Illustrator 23.0.3, SVG Export Plug-In . SVG Version: 6.00 Build 0)  -->
<svg version="1.1" id="Calque_1" xmlns="http://www.w3.org/2000/svg" xmlns:xlink="http://www.w3.org/1999/xlink" x="0px" y="0px"
	 viewBox="0 0 4096 2048" style="enable-background:new 0 0 4096 2048;" xml:space="preserve">
<style type="text/css">
	.st0{fill:#FFFFFF;}
</style>
<g>
	<path class="st0" d="M2,2050C2,1367.33,2,684.67,2,2c1365.33,0,2730.67,0,4096,0c0,682.67,0,1365.33,0,2048
		C2732.67,2050,1367.33,2050,2,2050z M1283.23,1062.77c0,4.89,0,8.87,0,12.85c0,85,0,169.99,0.01,254.99
		c0,3.66-0.03,7.34,0.23,10.99c0.87,11.93,7.27,19.7,18.37,23.73c2.81,1.02,5.72,1.8,8.57,2.7
		c138.02,43.91,276.09,87.69,413.99,131.97c13.1,4.21,24.74,4.03,37.76-0.15c139.49-44.78,279.14-89.09,418.73-133.56
		c16-5.1,21.91-13.15,22.31-30.07c0.06-2.67,0.01-5.33,0.01-8c0-84.66,0-169.32,0-253.99c0-3.91,0-7.82,0-11.7
		c17.44-7.02,33.8-13.62,50.17-20.19c21.33-8.56,42.77-16.85,63.97-25.71c14.97-6.26,21.17-22.48,14.17-36.34
		c-1.91-3.79-4.89-7.14-7.78-10.33c-32.66-36.07-65.41-72.06-98.12-108.09c-4.21-4.63-8.37-9.31-12.78-14.21
		c2.78-3.18,4.9-5.7,7.11-8.14c34.28-37.76,67.83-76.2,103.18-112.93c15.83-16.45,14.39-40.83-11.67-51.02
		c-114.77-44.87-228.97-91.2-343.39-136.99c-24.12-9.65-48.41-18.89-72.33-29.03c-14.95-6.34-27.17-3.78-37.83,8.09
		c-1.33,1.49-2.82,2.84-4.23,4.25c-34.17,34.18-68.35,68.35-102.53,102.52c-2.55,2.55-5.18,5.01-9.35,9.03
		c-2.61-3.48-4.51-6.73-7.08-9.32c-27.26-27.42-54.63-54.73-81.97-82.07c-8.96-8.96-17.91-17.92-26.87-26.87
		c-9.21-9.2-19.88-11.57-32.05-6.81c-2.17,0.85-4.33,1.74-6.49,2.61c-109.47,43.79-218.94,87.57-328.4,131.37
		c-29.37,11.75-58.67,23.68-88.1,35.28c-11.85,4.67-18.37,12.96-18.79,25.61c-0.28,8.52,4.17,15.14,9.73,21.23
		c30.78,33.72,61.5,67.51,92.22,101.29c6.43,7.08,12.78,14.23,19.34,21.53c-2.42,2.93-4.22,5.3-6.21,7.49
		c-24.2,26.65-48.43,53.27-72.65,79.9c-11.44,12.58-22.88,25.14-34.29,37.75c-8.12,8.97-10.57,19.12-5.76,30.49
		c3.35,7.91,9.99,12.05,17.71,15.11c33.43,13.25,66.8,26.66,100.18,40.04C1275.72,1059.46,1279.03,1060.97,1283.23,1062.77z
		 M2994.41,771.06c0.6,0.19,1.21,0.37,1.82,0.56c0,3.29,0.07,6.59-0.01,9.88c-0.62,24.99-1.68,49.97-1.84,74.97
		c-0.4,62.66-0.48,125.32-0.54,187.98c-0.1,112.32-0.03,224.64-0.2,336.96c-0.03,21.33-0.91,42.65-1.25,63.98
		c-0.05,2.89-0.04,6.25,1.3,8.63c6.59,11.67,23.91,17.48,36.83,12.79c14.71-5.34,24.82-19.3,25.05-34.96
		c1.25-82.31,2.82-164.63,3.58-246.95c1.32-144.31,2.01-288.63,3.25-432.95c0.31-36.32,1.52-72.64,2.63-108.95
		c0.6-19.62-0.48-21.9-18.33-30.18c-0.91-0.42-1.84-0.79-2.77-1.14c-18.86-7.18-42.63-6.05-52.97,23.03
		c-7.69,21.62-16.79,42.78-26.15,63.75c-25.69,57.57-56.17,112.66-87.85,167.09c-17.25,29.66-34.9,59.09-52.51,88.54
		c-2.46,4.12-5.72,7.76-9.03,12.2c-12.39-17.42-22.21-34.8-31.14-52.69c-25.55-51.2-43.44-105.23-58.14-160.33
		c-10.04-37.63-19.24-75.5-28.18-113.41c-3.98-16.86-12.91-28.91-28.67-35.98c-2.73-1.23-5.42-2.57-8.07-3.97
		c-8.98-4.77-14.02-4.18-19.3,4.25c-4.19,6.69-8.09,14.06-9.88,21.66c-5.19,22-10.43,44.11-13.54,66.47
		c-7.66,55.16-10.77,110.75-12.52,166.39c-1.83,57.96-3.16,115.94-4.59,173.91c-3.19,128.94-6.32,257.89-9.43,386.83
		c-0.42,17.62,1.08,19.71,17.65,26.39c2.46,0.99,5.07,1.62,7.57,2.53c7.74,2.82,14.45,0.49,20.5-4.32
		c7.62-6.06,10.03-14.17,10.2-23.8c1.73-97.3,3.26-194.61,5.75-291.9c2.59-100.97,9.61-201.68,20.62-302.1
		c0.81-7.4,1.96-14.76,2.95-22.14c0.75-0.11,1.5-0.23,2.25-0.34c4.13,8.24,8.56,16.36,12.35,24.76
		c34.08,75.6,68.04,151.26,102.08,226.88c1.91,4.24,3.81,8.56,6.38,12.41c7.15,10.75,16.38,12.86,27.59,6.36
		c10.09-5.85,17.28-14.53,22.57-24.79c3.05-5.92,5.66-12.06,8.67-18c20.18-39.81,40.18-79.71,60.69-119.35
		c23.26-44.96,47-89.68,70.56-134.48C2991.52,775.29,2993.05,773.22,2994.41,771.06z M3293.93,803.89c0.85-0.12,1.7-0.24,2.56-0.36
		c3.82,7.68,7.88,15.26,11.41,23.07c34.09,75.61,68.07,151.26,102.13,226.88c2.18,4.85,4.28,9.82,7.18,14.24
		c7.09,10.79,16.37,12.92,27.55,6.48c10.43-6,17.72-15.03,23.12-25.62c3.18-6.23,5.87-12.7,9.03-18.94
		c20.18-39.81,40.17-79.72,60.71-119.34c23.45-45.24,47.39-90.23,71.18-135.3c0.94-1.79,2.55-3.23,3.58-4.51
		c0,12.24,0.07,24.21-0.01,36.17c-0.58,79.33-1.99,158.66-1.6,237.98c0.57,119.66,2.25,239.32-0.61,358.97
		c-0.34,14.33-0.5,28.66-0.41,43c0.02,3.1,0.67,6.84,2.48,9.16c8.73,11.24,22.49,15.47,34.71,11.31
		c13.65-4.65,25.02-18.76,25.27-31.63c1.19-61.65,2.81-123.3,3.4-184.96c1.92-203.31,0.72-406.66,6.4-609.93
		c0.5-17.77,0.36-17.78-15.25-26.18c-1.17-0.63-2.36-1.24-3.57-1.79c-24.97-11.27-45.34-2.69-55.31,22.71
		c-8.15,20.77-16.47,41.49-25.51,61.87c-25.43,57.33-55.74,112.14-87.2,166.31c-17.4,29.96-35.2,59.69-52.94,89.45
		c-2.64,4.43-5.97,8.46-9.54,13.45c-2.63-3.67-4.78-6.19-6.41-9.01c-8.19-14.11-16.84-28-24.24-42.52
		c-24.47-47.98-41.76-98.74-55.81-150.57c-11.41-42.09-21.62-84.51-32-126.87c-3.58-14.61-11.64-25.16-24.9-31.94
		c-4.45-2.27-9.05-4.3-13.27-6.94c-5.17-3.23-9.8-2.23-13.58,1.65c-3.19,3.29-6.17,7.16-7.98,11.32
		c-3.31,7.61-6.16,15.48-8.35,23.48c-7.3,26.75-11.43,54.17-13.64,81.7c-4.05,50.48-8.23,101.01-9.88,151.6
		c-3.68,112.93-5.84,225.91-8.61,338.87c-1.73,70.64-3.4,141.28-5.21,211.92c-0.44,17.2,0.73,19.45,16.5,26.19
		c2.75,1.17,5.65,1.97,8.47,2.99c8.52,3.11,15.72,0.35,22.13-5.21c6.79-5.9,8.54-13.61,8.7-22.43
		c1.73-97.31,3.52-194.62,5.75-291.92c0.75-32.98,2.14-65.97,4.4-98.88c3.99-58.17,8.74-116.29,13.47-174.4
		C3289.6,838.18,3291.99,821.05,3293.93,803.89z M853.89,1240.28c0.86,2.68,1.52,4.21,1.84,5.81
		c12.79,63.98,25.66,127.94,38.21,191.96c1.93,9.87,6.98,17.19,14.8,22.79c11.05,7.9,24.15,6.51,33.51-3.32
		c7.23-7.59,9.07-16.4,6.91-26.75c-17.11-82.12-33.79-164.33-50.96-246.44c-32.64-156.07-65.34-312.13-98.44-468.1
		c-7.6-35.8-16.61-71.32-25.57-106.82c-5.05-19.99-14.1-38.16-29.62-52.32c-20.69-18.87-42.11-14.39-53.74,11.12
		c-5.3,11.63-8.07,24.01-8.93,36.71c-2.13,31.24-4.04,62.5-5.91,93.76c-2.29,38.24-4.42,76.5-6.68,114.74
		c-3.05,51.55-6.2,103.09-9.25,154.64c-2.28,38.58-4.42,77.17-6.68,115.74c-3.16,53.88-6.38,107.75-9.57,161.63
		c-1.56,26.27-3.12,52.55-4.69,78.82c-2.79,46.56-5.57,93.11-8.41,139.67c-0.38,6.21,1.71,11.23,6.88,14.59
		c10.21,6.62,21.3,7.96,32.34,2.94c3.87-1.76,7.42-5.79,9.43-9.65c1.89-3.62,1.8-8.38,2.16-12.68
		c4.28-50.77,8.31-101.57,12.82-152.32c1.29-14.5,3.92-28.88,5.99-43.74C751.83,1255.4,802.45,1247.9,853.89,1240.28z
		 M329.63,1361.78c-0.55-2.78-1.22-4.95-1.38-7.16c-3.31-45.19-7.41-90.35-9.63-135.6c-4.04-82.21-7.59-164.46-10.17-246.73
		c-2.96-94.27-4.57-188.58-6.93-282.88c-0.84-33.65-1.71-67.31-3.5-100.92c-0.96-18.09-10.49-32.37-25.92-41.53
		c-16.17-9.6-34.5,1.35-34.31,20.08c0.59,60.31-1.71,120.64,1.99,180.93c2.7,43.9,4.34,87.87,6.85,131.79
		c5,87.51,8.88,175.05,9.95,262.73c0.83,67.97,3.53,135.92,5.87,203.86c0.67,19.29,2.37,38.6,4.72,57.77
		c2.72,22.21,24.91,37.04,46.71,32.09c4.85-1.1,9.76-2.45,14.24-4.55c23.64-11.05,48.99-14.58,74.5-17.74
		c19.16-2.37,38.37-4.66,57.34-8.16c10.35-1.91,20.74-5.27,30.23-9.81c12.32-5.89,16.7-18.92,13.97-35.44
		c-1.82-11.01-9.31-18.57-22.75-20.47c-10.13-1.43-20.59-1.74-30.82-1.11c-26.65,1.65-52.85,6.52-78.81,12.73
		C357.92,1354.97,344.08,1358.3,329.63,1361.78z M3826.48,680.72c1.81,25.28,3.74,55.87,6.25,86.42
		c3.37,41.17,7.99,82.26,10.63,123.47c5.28,82.47,9.61,165,14.25,247.51c3.65,64.88,7.15,129.76,10.81,194.64
		c0.94,16.63,1.74,33.3,3.58,49.84c0.9,8.16,3.36,16.31,6.28,24.03c3.88,10.23,12.09,16.42,23,16.33c8.82-0.07,17.98-1.43,26.33-4.2
		c10.9-3.62,16.11-12.51,15.62-24.15c-0.35-8.32-1.04-16.63-1.74-24.93c-3.81-45.47-7.87-90.93-11.44-136.42
		c-3.18-40.52-5.79-81.09-8.73-121.64c-3.03-41.87-6.19-83.73-9.21-125.61c-2.97-41.21-5.81-82.43-8.76-123.64
		c-3.14-43.87-6.36-87.73-9.52-131.6c-2.09-28.91-4.18-57.83-6.18-86.74c-0.65-9.38-5.05-16.42-12.82-21.42
		c-8.98-5.77-18.83-8.41-29.49-7.29c-12.86,1.35-18.49,7.18-18.79,20.07C3826.24,648.72,3826.48,662.05,3826.48,680.72z"/>
	<path d="M1283.23,1062.77c-4.2-1.81-7.51-3.31-10.88-4.66c-33.38-13.38-66.75-26.79-100.18-40.04c-7.72-3.06-14.36-7.2-17.71-15.11
		c-4.81-11.36-2.36-21.51,5.76-30.49c11.4-12.6,22.85-25.17,34.29-37.75c24.22-26.63,48.45-53.25,72.65-79.9
		c1.99-2.19,3.79-4.56,6.21-7.49c-6.56-7.31-12.91-14.46-19.34-21.53c-30.72-33.78-61.44-67.57-92.22-101.29
		c-5.56-6.09-10.01-12.71-9.73-21.23c0.42-12.65,6.95-20.94,18.79-25.61c29.43-11.6,58.73-23.53,88.1-35.28
		c109.46-43.8,218.93-87.58,328.4-131.37c2.17-0.87,4.32-1.76,6.49-2.61c12.18-4.76,22.84-2.39,32.05,6.81
		c8.96,8.95,17.91,17.91,26.87,26.87c27.34,27.34,54.71,54.65,81.97,82.07c2.57,2.59,4.47,5.84,7.08,9.32
		c4.17-4.02,6.81-6.48,9.35-9.03c34.18-34.17,68.36-68.34,102.53-102.52c1.41-1.41,2.9-2.77,4.23-4.25
		c10.66-11.87,22.88-14.43,37.83-8.09c23.91,10.14,48.21,19.38,72.33,29.03c114.41,45.79,228.61,92.12,343.39,136.99
		c26.06,10.19,27.5,34.57,11.67,51.02c-35.35,36.73-68.9,75.17-103.18,112.93c-2.21,2.44-4.34,4.95-7.11,8.14
		c4.41,4.91,8.57,9.58,12.78,14.21c32.71,36.02,65.46,72.02,98.12,108.09c2.89,3.19,5.86,6.54,7.78,10.33
		c6.99,13.86,0.8,30.08-14.17,36.34c-21.2,8.86-42.64,17.15-63.97,25.71c-16.37,6.57-32.73,13.17-50.17,20.19c0,3.88,0,7.79,0,11.7
		c0,84.66,0,169.32,0,253.99c0,2.67,0.05,5.33-0.01,8c-0.4,16.92-6.31,24.98-22.31,30.07c-139.6,44.47-279.24,88.78-418.73,133.56
		c-13.02,4.18-24.66,4.36-37.76,0.15c-137.91-44.28-275.97-88.06-413.99-131.97c-2.86-0.91-5.76-1.68-8.57-2.7
		c-11.09-4.04-17.5-11.8-18.37-23.73c-0.27-3.65-0.23-7.33-0.23-10.99c-0.01-85-0.01-169.99-0.01-254.99
		C1283.23,1071.64,1283.23,1067.66,1283.23,1062.77z M1380.91,847.21c4.45,2.14,7.02,3.54,9.71,4.64
		c115.2,47.18,230.42,94.3,345.58,141.57c4.99,2.05,9.2,2.09,14.2,0.04c114.84-47.17,229.74-94.2,344.62-141.28
		c2.97-1.22,5.83-2.68,10.44-4.81c-5.3-2.25-8.85-3.8-12.43-5.27c-113.36-46.39-226.75-92.71-340.02-139.32
		c-7.1-2.92-12.89-2.71-19.86,0.17c-84.63,34.87-169.37,69.46-254.09,104.12C1447.01,820.17,1414.99,833.27,1380.91,847.21z
		 M2149.34,1320.83c0-79.11,0-157.26,0-236.46c-4.5,1.65-8.21,2.92-11.85,4.37c-45.15,18.06-90.29,36.14-135.43,54.21
		c-35.56,14.24-71.13,28.43-106.66,42.74c-7.94,3.2-16.05,5.47-24.11,1.52c-4.67-2.29-9.03-5.68-12.75-9.36
		c-27.01-26.73-53.81-53.67-80.7-80.51c-2-1.99-4.24-3.74-7.39-6.49c0,117.35,0,233.17,0,350.52
		C1896.96,1401.12,2022.77,1361.1,2149.34,1320.83z M1715.73,1441.37c0-117.67,0-233.43,0-350.74c-3.42,3.15-5.86,5.23-8.13,7.49
		c-26.88,26.84-53.81,53.65-80.55,80.63c-5.62,5.67-11.91,10.39-19.84,10.26c-6.1-0.1-12.44-2-18.2-4.29
		c-80.13-31.9-160.18-64.02-240.25-96.06c-3.81-1.52-7.69-2.84-11.88-4.39c0,79.71,0,157.89,0,236.54
		C1463.18,1361.01,1589.04,1401.05,1715.73,1441.37z M1317.05,879.21c-31.22,34.34-61.64,67.8-93.02,102.32
		c125.55,50.23,249.96,99.99,372.71,149.1c32.96-33.03,64.83-64.96,97.09-97.28C1568.95,982.26,1443.37,930.89,1317.05,879.21z
		 M1889.99,564.58c-33.07,33.06-65,64.99-97.24,97.24c124.93,51.1,250.73,102.56,376.07,153.83c22.41-21.48,88.61-95.82,91.56-102.9
		C2136.18,663.07,2012,613.39,1889.99,564.58z M1316.99,815.92c126.29-51.67,251.93-103.07,376.84-154.17
		c-32.35-32.41-64.47-64.58-97.17-97.33c-122.96,49.21-247.05,98.87-372.66,149.14C1255.5,748.23,1285.87,781.67,1316.99,815.92z
		 M2169.92,879.92c-17.66,4.86-372.31,150.89-377.05,154.84c31.68,31.72,63.42,63.49,96.07,96.17
		c123.39-49.36,247.83-99.14,373.39-149.37C2230.89,946.98,2200.27,913.3,2169.92,879.92z"/>
	<path d="M2994.41,771.06c-1.36,2.16-2.89,4.23-4.07,6.48c-23.56,44.8-47.29,89.52-70.56,134.48
		c-20.51,39.64-40.51,79.54-60.69,119.35c-3.01,5.94-5.62,12.08-8.67,18c-5.29,10.26-12.48,18.94-22.57,24.79
		c-11.21,6.5-20.43,4.39-27.59-6.36c-2.56-3.85-4.47-8.17-6.38-12.41c-34.04-75.62-68-151.28-102.08-226.88
		c-3.79-8.4-8.22-16.51-12.35-24.76c-0.75,0.11-1.5,0.23-2.25,0.34c-0.99,7.38-2.14,14.74-2.95,22.14
		c-11.01,100.42-18.03,201.13-20.62,302.1c-2.49,97.28-4.02,194.59-5.75,291.9c-0.17,9.63-2.58,17.74-10.2,23.8
		c-6.05,4.81-12.75,7.14-20.5,4.32c-2.5-0.91-5.11-1.54-7.57-2.53c-16.57-6.68-18.08-8.77-17.65-26.39
		c3.11-128.95,6.24-257.89,9.43-386.83c1.43-57.97,2.76-115.95,4.59-173.91c1.76-55.63,4.86-111.22,12.52-166.39
		c3.11-22.36,8.34-44.46,13.54-66.47c1.79-7.6,5.69-14.97,9.88-21.66c5.28-8.43,10.32-9.02,19.3-4.25c2.65,1.41,5.33,2.75,8.07,3.97
		c15.75,7.07,24.69,19.12,28.67,35.98c8.94,37.91,18.14,75.78,28.18,113.41c14.7,55.1,32.59,109.13,58.14,160.33
		c8.93,17.89,18.75,35.26,31.14,52.69c3.32-4.44,6.57-8.08,9.03-12.2c17.61-29.45,35.25-58.88,52.51-88.54
		c31.67-54.43,62.16-109.52,87.85-167.09c9.36-20.97,18.47-42.13,26.15-63.75c10.34-29.08,34.11-30.21,52.97-23.03
		c0.93,0.36,1.86,0.72,2.77,1.14c17.85,8.27,18.93,10.56,18.33,30.18c-1.11,36.31-2.32,72.63-2.63,108.95
		c-1.23,144.31-1.92,288.63-3.25,432.95c-0.76,82.32-2.33,164.63-3.58,246.95c-0.24,15.66-10.34,29.62-25.05,34.96
		c-12.92,4.69-30.24-1.12-36.83-12.79c-1.34-2.37-1.34-5.73-1.3-8.63c0.34-21.33,1.22-42.65,1.25-63.98
		c0.17-112.32,0.09-224.64,0.2-336.96c0.06-62.66,0.14-125.32,0.54-187.98c0.16-24.99,1.22-49.98,1.84-74.97
		c0.08-3.29,0.01-6.59,0.01-9.88C2995.62,771.43,2995.02,771.25,2994.41,771.06z"/>
	<path d="M3293.93,803.89c-1.93,17.17-4.32,34.3-5.72,51.51c-4.73,58.11-9.47,116.23-13.47,174.4c-2.26,32.91-3.65,65.9-4.4,98.88
		c-2.23,97.3-4.01,194.61-5.75,291.92c-0.16,8.83-1.91,16.53-8.7,22.43c-6.4,5.57-13.6,8.33-22.13,5.21
		c-2.81-1.03-5.72-1.82-8.47-2.99c-15.77-6.74-16.94-8.98-16.5-26.19c1.81-70.64,3.48-141.28,5.21-211.92
		c2.77-112.96,4.93-225.94,8.61-338.87c1.65-50.59,5.84-101.12,9.88-151.6c2.21-27.53,6.33-54.95,13.64-81.7
		c2.18-8,5.04-15.88,8.35-23.48c1.81-4.16,4.79-8.04,7.98-11.32c3.77-3.89,8.41-4.89,13.58-1.65c4.22,2.64,8.82,4.67,13.27,6.94
		c13.26,6.78,21.32,17.34,24.9,31.94c10.38,42.36,20.59,84.78,32,126.87c14.05,51.82,31.33,102.58,55.81,150.57
		c7.41,14.52,16.05,28.41,24.24,42.52c1.64,2.82,3.78,5.34,6.41,9.01c3.57-4.99,6.9-9.02,9.54-13.45
		c17.74-29.76,35.54-59.49,52.94-89.45c31.47-54.17,61.77-108.98,87.2-166.31c9.04-20.39,17.37-41.11,25.51-61.87
		c9.97-25.4,30.34-33.98,55.31-22.71c1.21,0.55,2.4,1.16,3.57,1.79c15.61,8.41,15.75,8.42,15.25,26.18
		c-5.68,203.28-4.48,406.62-6.4,609.93c-0.58,61.66-2.21,123.31-3.4,184.96c-0.25,12.87-11.62,26.98-25.27,31.63
		c-12.22,4.16-25.98-0.06-34.71-11.31c-1.81-2.32-2.46-6.07-2.48-9.16c-0.1-14.33,0.06-28.67,0.41-43
		c2.86-119.65,1.18-239.31,0.61-358.97c-0.38-79.32,1.03-158.65,1.6-237.98c0.09-11.96,0.01-23.93,0.01-36.17
		c-1.03,1.28-2.64,2.72-3.58,4.51c-23.79,45.07-47.73,90.06-71.18,135.3c-20.54,39.63-40.54,79.53-60.71,119.34
		c-3.16,6.24-5.86,12.71-9.03,18.94c-5.4,10.59-12.69,19.61-23.12,25.62c-11.18,6.44-20.47,4.31-27.55-6.48
		c-2.9-4.42-5-9.39-7.18-14.24c-34.06-75.62-68.04-151.27-102.13-226.88c-3.52-7.82-7.59-15.39-11.41-23.07
		C3295.63,803.65,3294.78,803.77,3293.93,803.89z"/>
	<path d="M853.89,1240.28c-51.44,7.62-102.06,15.13-153.56,22.76c-2.08,14.86-4.71,29.24-5.99,43.74
		c-4.51,50.75-8.54,101.55-12.82,152.32c-0.36,4.3-0.27,9.06-2.16,12.68c-2.01,3.87-5.56,7.89-9.43,9.65
		c-11.04,5.02-22.13,3.68-32.34-2.94c-5.17-3.35-7.26-8.38-6.88-14.59c2.84-46.55,5.62-93.11,8.41-139.67
		c1.57-26.27,3.13-52.54,4.69-78.82c3.2-53.87,6.41-107.75,9.57-161.63c2.26-38.58,4.4-77.17,6.68-115.74
		c3.04-51.55,6.19-103.09,9.25-154.64c2.26-38.25,4.39-76.5,6.68-114.74c1.87-31.26,3.78-62.51,5.91-93.76
		c0.87-12.69,3.63-25.07,8.93-36.71c11.63-25.52,33.05-30,53.74-11.12c15.53,14.16,24.58,32.33,29.62,52.32
		c8.96,35.5,17.97,71.01,25.57,106.82c33.1,155.97,65.8,312.03,98.44,468.1c17.17,82.11,33.85,164.32,50.96,246.44
		c2.16,10.35,0.31,19.16-6.91,26.75c-9.36,9.83-22.46,11.22-33.51,3.32c-7.83-5.6-12.87-12.92-14.8-22.79
		c-12.55-64.02-25.42-127.99-38.21-191.96C855.41,1244.49,854.75,1242.95,853.89,1240.28z M842.23,1187.67
		c-0.21-2.91-0.12-4.59-0.47-6.19c-36.29-164.42-72.61-328.83-108.96-493.24c-0.06-0.26-0.45-0.52-0.74-0.63
		c-0.29-0.11-0.66-0.02-1.36-0.02c-0.2,2.86-0.41,5.79-0.59,8.73c-2.9,46.87-5.8,93.75-8.7,140.62
		c-3.88,62.83-7.76,125.66-11.64,188.49c-1.68,27.26-3.53,54.51-5.01,81.78c-1.63,30.27-2.95,60.55-4.32,90.83
		c-0.14,3.11,0.3,6.25,0.51,10C748.56,1201.18,794.93,1194.49,842.23,1187.67z"/>
	<path d="M329.63,1361.78c14.45-3.47,28.29-6.81,42.13-10.13c25.95-6.21,52.16-11.08,78.81-12.73c10.23-0.63,20.69-0.33,30.82,1.11
		c13.44,1.9,20.93,9.46,22.75,20.47c2.73,16.53-1.64,29.55-13.97,35.44c-9.49,4.54-19.88,7.89-30.23,9.81
		c-18.97,3.51-38.18,5.79-57.34,8.16c-25.51,3.16-50.86,6.68-74.5,17.74c-4.48,2.09-9.39,3.44-14.24,4.55
		c-21.8,4.95-43.99-9.88-46.71-32.09c-2.35-19.16-4.05-38.47-4.72-57.77c-2.34-67.94-5.05-135.89-5.87-203.86
		c-1.07-87.68-4.95-175.21-9.95-262.73c-2.51-43.92-4.15-87.88-6.85-131.79c-3.71-60.29-1.4-120.62-1.99-180.93
		c-0.18-18.72,18.14-29.68,34.31-20.08c15.43,9.16,24.96,23.44,25.92,41.53c1.79,33.61,2.66,67.27,3.5,100.92
		c2.37,94.29,3.97,188.6,6.93,282.88c2.58,82.27,6.13,164.52,10.17,246.73c2.22,45.25,6.33,90.4,9.63,135.6
		C328.41,1356.83,329.08,1359,329.63,1361.78z"/>
	<path d="M3826.48,680.72c0-18.67-0.24-32,0.07-45.33c0.3-12.89,5.93-18.72,18.79-20.07c10.66-1.11,20.51,1.52,29.49,7.29
		c7.78,5,12.18,12.03,12.82,21.42c2,28.92,4.1,57.83,6.18,86.74c3.17,43.87,6.38,87.73,9.52,131.6
		c2.95,41.21,5.79,82.43,8.76,123.64c3.02,41.87,6.18,83.73,9.21,125.61c2.93,40.54,5.55,81.11,8.73,121.64
		c3.57,45.49,7.63,90.95,11.44,136.42c0.7,8.3,1.39,16.61,1.74,24.93c0.49,11.64-4.72,20.53-15.62,24.15
		c-8.35,2.77-17.51,4.13-26.33,4.2c-10.91,0.09-19.12-6.11-23-16.33c-2.93-7.71-5.38-15.87-6.28-24.03
		c-1.83-16.54-2.64-33.21-3.58-49.84c-3.66-64.88-7.16-129.76-10.81-194.64c-4.65-82.51-8.98-165.04-14.25-247.51
		c-2.64-41.21-7.26-82.3-10.63-123.47C3830.22,736.59,3828.29,706,3826.48,680.72z"/>
	<path class="st0" d="M1380.91,847.21c34.08-13.94,66.11-27.04,98.13-40.15c84.71-34.66,169.46-69.25,254.09-104.12
		c6.97-2.87,12.76-3.09,19.86-0.17c113.27,46.6,226.66,92.92,340.02,139.32c3.58,1.47,7.13,3.02,12.43,5.27
		c-4.61,2.13-7.48,3.6-10.44,4.81c-114.88,47.08-229.78,94.11-344.62,141.28c-5,2.05-9.21,2.01-14.2-0.04
		c-115.16-47.27-230.38-94.39-345.58-141.57C1387.92,850.74,1385.35,849.35,1380.91,847.21z"/>
	<path class="st0" d="M2149.34,1320.83c-126.57,40.26-252.38,80.29-378.9,120.54c0-117.35,0-233.16,0-350.52
		c3.15,2.75,5.39,4.5,7.39,6.49c26.9,26.84,53.7,53.78,80.7,80.51c3.72,3.68,8.08,7.07,12.75,9.36c8.06,3.95,16.16,1.68,24.11-1.52
		c35.53-14.31,71.11-28.5,106.66-42.74c45.14-18.07,90.28-36.16,135.43-54.21c3.64-1.46,7.35-2.72,11.85-4.37
		C2149.34,1163.58,2149.34,1241.72,2149.34,1320.83z"/>
	<path class="st0" d="M1715.73,1441.37c-126.7-40.31-252.55-80.36-378.85-120.55c0-78.65,0-156.83,0-236.54
		c4.19,1.54,8.08,2.86,11.88,4.39c80.08,32.04,160.12,64.16,240.25,96.06c5.76,2.29,12.1,4.19,18.2,4.29
		c7.93,0.13,14.21-4.59,19.84-10.26c26.74-26.98,53.67-53.79,80.55-80.63c2.26-2.26,4.7-4.35,8.13-7.49
		C1715.73,1207.94,1715.73,1323.7,1715.73,1441.37z"/>
	<path class="st0" d="M1317.05,879.21c126.32,51.67,251.9,103.05,376.78,154.14c-32.26,32.32-64.12,64.25-97.09,97.28
		c-122.75-49.11-247.16-98.87-372.71-149.1C1255.42,947.02,1285.84,913.55,1317.05,879.21z"/>
	<path class="st0" d="M1889.99,564.58c122.01,48.81,246.19,98.49,370.38,148.16c-2.95,7.09-69.15,81.42-91.56,102.9
		c-125.34-51.27-251.14-102.73-376.07-153.83C1824.99,629.57,1856.92,597.65,1889.99,564.58z"/>
	<path class="st0" d="M1316.99,815.92c-31.12-34.25-61.49-67.69-93-102.36c125.61-50.27,249.7-99.93,372.66-149.14
		c32.7,32.76,64.81,64.92,97.17,97.33C1568.92,712.85,1443.28,764.25,1316.99,815.92z"/>
	<path class="st0" d="M2169.92,879.92c30.34,33.38,60.97,67.06,92.41,101.65c-125.55,50.23-249.99,100.01-373.39,149.37
		c-32.65-32.68-64.39-64.46-96.07-96.17C1797.61,1030.81,2152.27,884.78,2169.92,879.92z"/>
	<path class="st0" d="M842.23,1187.67c-47.29,6.82-93.67,13.51-141.27,20.37c-0.21-3.75-0.65-6.89-0.51-10
		c1.37-30.28,2.69-60.56,4.32-90.83c1.47-27.27,3.32-54.52,5.01-81.78c3.88-62.83,7.76-125.66,11.64-188.49
		c2.9-46.87,5.8-93.75,8.7-140.62c0.18-2.93,0.4-5.87,0.59-8.73c0.7,0,1.06-0.08,1.36,0.02c0.29,0.11,0.68,0.37,0.74,0.63
		c36.35,164.41,72.67,328.82,108.96,493.24C842.11,1183.08,842.02,1184.76,842.23,1187.67z"/>
</g>
</svg>
